<?xml version="1.0" encoding="UTF-8" standalone="no"?>
<!DOCTYPE svg PUBLIC "-//W3C//DTD SVG 1.1//EN"
 "http://www.w3.org/Graphics/SVG/1.1/DTD/svg11.dtd">
<!-- Generated by graphviz version 2.43.0 (0)
 -->
<!-- Title: xxx Pages: 1 -->
<svg width="607pt" height="404pt"
 viewBox="0.00 0.00 606.50 404.00" xmlns="http://www.w3.org/2000/svg" xmlns:xlink="http://www.w3.org/1999/xlink">
<g id="graph0" class="graph" transform="scale(1 1) rotate(0) translate(4 400)">
<title>xxx</title>
<polygon fill="white" stroke="transparent" points="-4,4 -4,-400 602.5,-400 602.5,4 -4,4"/>
<!-- foundation&#45;developer -->
<g id="node1" class="node">
<title>foundation&#45;developer</title>
<polygon fill="none" stroke="blue" points="548,-396 545,-400 524,-400 521,-396 380,-396 380,-360 548,-360 548,-396"/>
<text text-anchor="middle" x="464" y="-374.3" font-family="Times,serif" font-size="14.00" fill="blue">foundation&#45;developer</text>
</g>
<!-- mulle&#45;foundation&#45;developer -->
<g id="node2" class="node">
<title>mulle&#45;foundation&#45;developer</title>
<polygon fill="none" stroke="blue" points="484,-324 481,-328 460,-328 457,-324 272,-324 272,-288 484,-288 484,-324"/>
<text text-anchor="middle" x="378" y="-302.3" font-family="Times,serif" font-size="14.00" fill="blue">mulle&#45;foundation&#45;developer</text>
</g>
<!-- foundation&#45;developer&#45;&gt;mulle&#45;foundation&#45;developer -->
<g id="edge1" class="edge">
<title>foundation&#45;developer&#45;&gt;mulle&#45;foundation&#45;developer</title>
<path fill="none" stroke="black" d="M442.74,-359.7C431.91,-350.88 418.58,-340.03 406.84,-330.47"/>
<polygon fill="black" stroke="black" points="408.98,-327.7 399.01,-324.1 404.56,-333.13 408.98,-327.7"/>
</g>
<!-- Foundation -->
<g id="node9" class="node">
<title>Foundation</title>
<polygon fill="none" stroke="black" points="592.5,-324 501.5,-324 501.5,-288 598.5,-288 598.5,-318 592.5,-324"/>
<polyline fill="none" stroke="black" points="592.5,-324 592.5,-318 "/>
<polyline fill="none" stroke="black" points="598.5,-318 592.5,-318 "/>
<text text-anchor="middle" x="550" y="-302.3" font-family="Times,serif" font-size="14.00">Foundation</text>
</g>
<!-- foundation&#45;developer&#45;&gt;Foundation -->
<g id="edge2" class="edge">
<title>foundation&#45;developer&#45;&gt;Foundation</title>
<path fill="none" stroke="black" d="M485.26,-359.7C496.09,-350.88 509.42,-340.03 521.16,-330.47"/>
<polygon fill="black" stroke="black" points="523.44,-333.13 528.99,-324.1 519.02,-327.7 523.44,-333.13"/>
</g>
<!-- mulle&#45;objc&#45;developer -->
<g id="node3" class="node">
<title>mulle&#45;objc&#45;developer</title>
<polygon fill="none" stroke="blue" points="376.5,-252 373.5,-256 352.5,-256 349.5,-252 211.5,-252 211.5,-216 376.5,-216 376.5,-252"/>
<text text-anchor="middle" x="294" y="-230.3" font-family="Times,serif" font-size="14.00" fill="blue">mulle&#45;objc&#45;developer</text>
</g>
<!-- mulle&#45;foundation&#45;developer&#45;&gt;mulle&#45;objc&#45;developer -->
<g id="edge3" class="edge">
<title>mulle&#45;foundation&#45;developer&#45;&gt;mulle&#45;objc&#45;developer</title>
<path fill="none" stroke="black" d="M357.24,-287.7C346.76,-278.97 333.89,-268.24 322.5,-258.75"/>
<polygon fill="black" stroke="black" points="324.45,-255.82 314.53,-252.1 319.97,-261.19 324.45,-255.82"/>
</g>
<!-- MulleFoundation -->
<g id="node10" class="node">
<title>MulleFoundation</title>
<polygon fill="none" stroke="black" points="525.5,-252 394.5,-252 394.5,-216 531.5,-216 531.5,-246 525.5,-252"/>
<polyline fill="none" stroke="black" points="525.5,-252 525.5,-246 "/>
<polyline fill="none" stroke="black" points="531.5,-246 525.5,-246 "/>
<text text-anchor="middle" x="463" y="-230.3" font-family="Times,serif" font-size="14.00">MulleFoundation</text>
</g>
<!-- mulle&#45;foundation&#45;developer&#45;&gt;MulleFoundation -->
<g id="edge4" class="edge">
<title>mulle&#45;foundation&#45;developer&#45;&gt;MulleFoundation</title>
<path fill="none" stroke="black" d="M399.01,-287.7C409.72,-278.88 422.89,-268.03 434.5,-258.47"/>
<polygon fill="black" stroke="black" points="436.74,-261.16 442.23,-252.1 432.29,-255.76 436.74,-261.16"/>
</g>
<!-- mulle&#45;c&#45;developer -->
<g id="node4" class="node">
<title>mulle&#45;c&#45;developer</title>
<polygon fill="none" stroke="blue" points="226.5,-180 223.5,-184 202.5,-184 199.5,-180 83.5,-180 83.5,-144 226.5,-144 226.5,-180"/>
<text text-anchor="middle" x="155" y="-158.3" font-family="Times,serif" font-size="14.00" fill="blue">mulle&#45;c&#45;developer</text>
</g>
<!-- mulle&#45;objc&#45;developer&#45;&gt;mulle&#45;c&#45;developer -->
<g id="edge5" class="edge">
<title>mulle&#45;objc&#45;developer&#45;&gt;mulle&#45;c&#45;developer</title>
<path fill="none" stroke="black" d="M260,-215.88C241.4,-206.51 218.17,-194.81 198.29,-184.8"/>
<polygon fill="black" stroke="black" points="199.64,-181.56 189.13,-180.19 196.49,-187.81 199.64,-181.56"/>
</g>
<!-- mulle&#45;clang -->
<g id="node7" class="node">
<title>mulle&#45;clang</title>
<polygon fill="none" stroke="magenta" points="343.5,-180 340.5,-184 319.5,-184 316.5,-180 244.5,-180 244.5,-144 343.5,-144 343.5,-180"/>
<text text-anchor="middle" x="294" y="-158.3" font-family="Times,serif" font-size="14.00" fill="magenta">mulle&#45;clang</text>
</g>
<!-- mulle&#45;objc&#45;developer&#45;&gt;mulle&#45;clang -->
<g id="edge7" class="edge">
<title>mulle&#45;objc&#45;developer&#45;&gt;mulle&#45;clang</title>
<path fill="none" stroke="black" d="M294,-215.7C294,-207.98 294,-198.71 294,-190.11"/>
<polygon fill="black" stroke="black" points="297.5,-190.1 294,-180.1 290.5,-190.1 297.5,-190.1"/>
</g>
<!-- MulleObjC -->
<g id="node11" class="node">
<title>MulleObjC</title>
<polygon fill="none" stroke="black" points="448,-180 362,-180 362,-144 454,-144 454,-174 448,-180"/>
<polyline fill="none" stroke="black" points="448,-180 448,-174 "/>
<polyline fill="none" stroke="black" points="454,-174 448,-174 "/>
<text text-anchor="middle" x="408" y="-158.3" font-family="Times,serif" font-size="14.00">MulleObjC</text>
</g>
<!-- mulle&#45;objc&#45;developer&#45;&gt;MulleObjC -->
<g id="edge6" class="edge">
<title>mulle&#45;objc&#45;developer&#45;&gt;MulleObjC</title>
<path fill="none" stroke="black" d="M321.89,-215.88C336.79,-206.72 355.33,-195.34 371.38,-185.48"/>
<polygon fill="black" stroke="black" points="373.31,-188.41 380.01,-180.19 369.65,-182.44 373.31,-188.41"/>
</g>
<!-- mulle&#45;sde&#45;developer -->
<g id="node5" class="node">
<title>mulle&#45;sde&#45;developer</title>
<polygon fill="none" stroke="blue" points="169.5,-108 166.5,-112 145.5,-112 142.5,-108 8.5,-108 8.5,-72 169.5,-72 169.5,-108"/>
<text text-anchor="middle" x="89" y="-86.3" font-family="Times,serif" font-size="14.00" fill="blue">mulle&#45;sde&#45;developer</text>
</g>
<!-- mulle&#45;c&#45;developer&#45;&gt;mulle&#45;sde&#45;developer -->
<g id="edge8" class="edge">
<title>mulle&#45;c&#45;developer&#45;&gt;mulle&#45;sde&#45;developer</title>
<path fill="none" stroke="black" d="M138.69,-143.7C130.69,-135.22 120.93,-124.86 112.18,-115.58"/>
<polygon fill="black" stroke="black" points="114.53,-112.98 105.13,-108.1 109.44,-117.78 114.53,-112.98"/>
</g>
<!-- mulle&#45;c -->
<g id="node12" class="node">
<title>mulle&#45;c</title>
<polygon fill="none" stroke="black" points="250,-108 188,-108 188,-72 256,-72 256,-102 250,-108"/>
<polyline fill="none" stroke="black" points="250,-108 250,-102 "/>
<polyline fill="none" stroke="black" points="256,-102 250,-102 "/>
<text text-anchor="middle" x="222" y="-86.3" font-family="Times,serif" font-size="14.00">mulle&#45;c</text>
</g>
<!-- mulle&#45;c&#45;developer&#45;&gt;mulle&#45;c -->
<g id="edge9" class="edge">
<title>mulle&#45;c&#45;developer&#45;&gt;mulle&#45;c</title>
<path fill="none" stroke="black" d="M171.56,-143.7C179.68,-135.22 189.59,-124.86 198.47,-115.58"/>
<polygon fill="black" stroke="black" points="201.24,-117.75 205.63,-108.1 196.19,-112.91 201.24,-117.75"/>
</g>
<!-- mulle&#45;sde -->
<g id="node6" class="node">
<title>mulle&#45;sde</title>
<polygon fill="none" stroke="blue" points="86,-36 83,-40 62,-40 59,-36 0,-36 0,0 86,0 86,-36"/>
<text text-anchor="middle" x="43" y="-14.3" font-family="Times,serif" font-size="14.00" fill="blue">mulle&#45;sde</text>
</g>
<!-- mulle&#45;sde&#45;developer&#45;&gt;mulle&#45;sde -->
<g id="edge10" class="edge">
<title>mulle&#45;sde&#45;developer&#45;&gt;mulle&#45;sde</title>
<path fill="none" stroke="black" d="M77.63,-71.7C72.28,-63.56 65.8,-53.69 59.89,-44.7"/>
<polygon fill="black" stroke="black" points="62.66,-42.54 54.24,-36.1 56.81,-46.38 62.66,-42.54"/>
</g>
<!-- cmake -->
<g id="node8" class="node">
<title>cmake</title>
<polygon fill="none" stroke="magenta" points="166,-36 163,-40 142,-40 139,-36 104,-36 104,0 166,0 166,-36"/>
<text text-anchor="middle" x="135" y="-14.3" font-family="Times,serif" font-size="14.00" fill="magenta">cmake</text>
</g>
<!-- mulle&#45;sde&#45;developer&#45;&gt;cmake -->
<g id="edge11" class="edge">
<title>mulle&#45;sde&#45;developer&#45;&gt;cmake</title>
<path fill="none" stroke="black" d="M100.37,-71.7C105.72,-63.56 112.2,-53.69 118.11,-44.7"/>
<polygon fill="black" stroke="black" points="121.19,-46.38 123.76,-36.1 115.34,-42.54 121.19,-46.38"/>
</g>
</g>
</svg>
