<?xml version="1.0" encoding="UTF-8" standalone="no"?>
<!DOCTYPE svg PUBLIC "-//W3C//DTD SVG 1.1//EN"
 "http://www.w3.org/Graphics/SVG/1.1/DTD/svg11.dtd">
<!-- Generated by graphviz version 2.43.0 (0)
 -->
<!-- Title: sourcetree Pages: 1 -->
<svg width="405pt" height="332pt"
 viewBox="0.00 0.00 404.50 332.00" xmlns="http://www.w3.org/2000/svg" xmlns:xlink="http://www.w3.org/1999/xlink">
<g id="graph0" class="graph" transform="scale(1 1) rotate(0) translate(4 328)">
<title>sourcetree</title>
<polygon fill="white" stroke="transparent" points="-4,4 -4,-328 400.5,-328 400.5,4 -4,4"/>
<!-- foundation&#45;developer -->
<g id="node1" class="node">
<title>foundation&#45;developer</title>
<polygon fill="yellow" stroke="black" points="293,-324 125,-324 125,-288 293,-288 293,-324"/>
<text text-anchor="middle" x="209" y="-302.3" font-family="Times,serif" font-size="14.00">foundation&#45;developer</text>
</g>
<!-- mulle&#45;foundation&#45;developer -->
<g id="node2" class="node">
<title>mulle&#45;foundation&#45;developer</title>
<polygon fill="white" stroke="black" points="212,-252 0,-252 0,-216 212,-216 212,-252"/>
<text text-anchor="middle" x="106" y="-230.3" font-family="Times,serif" font-size="14.00">mulle&#45;foundation&#45;developer</text>
</g>
<!-- foundation&#45;developer&#45;&gt;mulle&#45;foundation&#45;developer -->
<g id="edge1" class="edge">
<title>foundation&#45;developer&#45;&gt;mulle&#45;foundation&#45;developer</title>
<path fill="none" stroke="black" d="M183.8,-287.88C170.59,-278.89 154.21,-267.76 139.89,-258.03"/>
<polygon fill="black" stroke="black" points="141.53,-254.92 131.29,-252.19 137.6,-260.71 141.53,-254.92"/>
</g>
<!-- mulle&#45;core&#45;developer -->
<g id="node4" class="node">
<title>mulle&#45;core&#45;developer</title>
<polygon fill="white" stroke="black" points="396.5,-252 229.5,-252 229.5,-216 396.5,-216 396.5,-252"/>
<text text-anchor="middle" x="313" y="-230.3" font-family="Times,serif" font-size="14.00">mulle&#45;core&#45;developer</text>
</g>
<!-- foundation&#45;developer&#45;&gt;mulle&#45;core&#45;developer -->
<g id="edge5" class="edge">
<title>foundation&#45;developer&#45;&gt;mulle&#45;core&#45;developer</title>
<path fill="none" stroke="black" d="M234.44,-287.88C247.79,-278.89 264.32,-267.76 278.78,-258.03"/>
<polygon fill="black" stroke="black" points="281.12,-260.68 287.46,-252.19 277.21,-254.87 281.12,-260.68"/>
</g>
<!-- mulle&#45;objc&#45;developer -->
<g id="node3" class="node">
<title>mulle&#45;objc&#45;developer</title>
<polygon fill="white" stroke="black" points="188.5,-180 23.5,-180 23.5,-144 188.5,-144 188.5,-180"/>
<text text-anchor="middle" x="106" y="-158.3" font-family="Times,serif" font-size="14.00">mulle&#45;objc&#45;developer</text>
</g>
<!-- mulle&#45;foundation&#45;developer&#45;&gt;mulle&#45;objc&#45;developer -->
<g id="edge2" class="edge">
<title>mulle&#45;foundation&#45;developer&#45;&gt;mulle&#45;objc&#45;developer</title>
<path fill="none" stroke="black" d="M106,-215.7C106,-207.98 106,-198.71 106,-190.11"/>
<polygon fill="black" stroke="black" points="109.5,-190.1 106,-180.1 102.5,-190.1 109.5,-190.1"/>
</g>
<!-- mulle&#45;c&#45;developer -->
<g id="node5" class="node">
<title>mulle&#45;c&#45;developer</title>
<polygon fill="white" stroke="black" points="177.5,-108 34.5,-108 34.5,-72 177.5,-72 177.5,-108"/>
<text text-anchor="middle" x="106" y="-86.3" font-family="Times,serif" font-size="14.00">mulle&#45;c&#45;developer</text>
</g>
<!-- mulle&#45;objc&#45;developer&#45;&gt;mulle&#45;c&#45;developer -->
<g id="edge3" class="edge">
<title>mulle&#45;objc&#45;developer&#45;&gt;mulle&#45;c&#45;developer</title>
<path fill="none" stroke="black" d="M106,-143.7C106,-135.98 106,-126.71 106,-118.11"/>
<polygon fill="black" stroke="black" points="109.5,-118.1 106,-108.1 102.5,-118.1 109.5,-118.1"/>
</g>
<!-- mulle&#45;sde&#45;developer -->
<g id="node6" class="node">
<title>mulle&#45;sde&#45;developer</title>
<polygon fill="white" stroke="black" points="186.5,-36 25.5,-36 25.5,0 186.5,0 186.5,-36"/>
<text text-anchor="middle" x="106" y="-14.3" font-family="Times,serif" font-size="14.00">mulle&#45;sde&#45;developer</text>
</g>
<!-- mulle&#45;c&#45;developer&#45;&gt;mulle&#45;sde&#45;developer -->
<g id="edge4" class="edge">
<title>mulle&#45;c&#45;developer&#45;&gt;mulle&#45;sde&#45;developer</title>
<path fill="none" stroke="black" d="M106,-71.7C106,-63.98 106,-54.71 106,-46.11"/>
<polygon fill="black" stroke="black" points="109.5,-46.1 106,-36.1 102.5,-46.1 109.5,-46.1"/>
</g>
</g>
</svg>
